<svg id="Layer_1" data-name="Layer 1" xmlns="http://www.w3.org/2000/svg" viewBox="0 0 370.08 240.19"><defs><style>.cls-1{fill:#e04264;}.cls-2{fill:#85de76;}.cls-3{fill:#ffb607;}.cls-4{fill:#50545d;}.cls-5{fill:#3d4d55;}</style></defs><title>MBD</title><path class="cls-1" d="M293.78,181.39s8.34-23.37.12-32.59c-6.84-7.68-29.54,3.3-30.88-8-1.47-12.32,12.3-28.62,18.86-35.61a4.09,4.09,0,0,1,6.16.21c6.5,8,23.28,26.43,39.8,27.23C335.86,140.68,293.78,181.39,293.78,181.39Z" transform="translate(-112.96 -65.41)"/><circle class="cls-2" cx="112.8" cy="126.84" r="28.96"/><circle class="cls-3" cx="246.28" cy="126.84" r="28.96"/><path class="cls-4" d="M314.6,98.06a16.33,16.33,0,1,1,16.33-16.33A16.34,16.34,0,0,1,314.6,98.06Zm0-25.79a9.47,9.47,0,1,0,9.47,9.46A9.47,9.47,0,0,0,314.6,72.27Z" transform="translate(-112.96 -65.41)"/><path class="cls-4" d="M315.85,141.38a13.83,13.83,0,0,0-11.73-6.44H271.28a3.43,3.43,0,1,0,0,6.86h32.84a7,7,0,0,1,6.5,9.75l-18.14,24.83a18.41,18.41,0,0,0-8.05-1.85,18.76,18.76,0,1,0,13.59,5.9l18.35-25.12.2-.27.14-.3A13.82,13.82,0,0,0,315.85,141.38Zm-19.6,51.83a11.82,11.82,0,1,1-11.82-11.82,11.7,11.7,0,0,1,3.9.67l-6.67,9.13a3.42,3.42,0,0,0,.75,4.79,3.42,3.42,0,0,0,4.79-.75l6.66-9.12A11.72,11.72,0,0,1,296.25,193.21Z" transform="translate(-112.96 -65.41)"/><path class="cls-5" d="M251.16,141.8a3.44,3.44,0,0,1-3.25-4.51c9.87-29.73,23.53-47.63,37.49-49.12,6.43-.68,12.1,2.29,15.55,8.16,7.61,12.91,17.13,20.21,28.31,21.71a30.09,30.09,0,0,0,14.21-1.45,3.43,3.43,0,1,1,2.73,6.29,36.26,36.26,0,0,1-17.85,2c-9.2-1.23-22.43-6.57-33.31-25-2.06-3.5-5.22-5.22-8.91-4.82-4.57.48-9.79,4.1-14.71,10.19-6.34,7.85-12.06,19.38-17,34.26A3.44,3.44,0,0,1,251.16,141.8Z" transform="translate(-112.96 -65.41)"/><path class="cls-4" d="M359.24,157.78a3.44,3.44,0,0,1-3.43-3.43v-22a3.43,3.43,0,0,1,6.86,0v22A3.44,3.44,0,0,1,359.24,157.78Z" transform="translate(-112.96 -65.41)"/><path class="cls-4" d="M401.53,193.21a42.29,42.29,0,1,0-84.58,0,3.42,3.42,0,0,0,1.47,2.81,40.56,40.56,0,0,0,16.4,30,2,2,0,0,0,.79,1.79l2.83,2.16a2.06,2.06,0,0,0,2.88-.38l1.4-1.83a2.07,2.07,0,0,0-.39-2.88l-2.83-2.16a2,2,0,0,0-2.35-.1,36.47,36.47,0,0,1-14.62-26.77,3.42,3.42,0,0,0,1.28-2.67,35.43,35.43,0,0,1,70.86,0,3.42,3.42,0,0,0,1.28,2.67,36.51,36.51,0,0,1-14.61,26.77,2.06,2.06,0,0,0-2.3.09l-2.87,2.12a2.06,2.06,0,0,0-.43,2.87l1.37,1.85A2.06,2.06,0,0,0,380,230l2.86-2.12a2,2,0,0,0,.82-1.84,40.61,40.61,0,0,0,16.41-30A3.44,3.44,0,0,0,401.53,193.21Z" transform="translate(-112.96 -65.41)"/><path class="cls-4" d="M255.46,222.16a42.3,42.3,0,0,0-33.26-72.07h-.13l-.26,0h0a3.32,3.32,0,0,0-1.49.7l0,0-.21.19,0,0,0,0-.16.18a.76.76,0,0,0-.08.11l-.12.16-.08.13-.09.15-.08.15-.07.15a.88.88,0,0,0-.05.15.49.49,0,0,0-.06.17.74.74,0,0,0,0,.14,1.21,1.21,0,0,0,0,.18.77.77,0,0,0,0,.15l0,.18a1,1,0,0,0,0,.17.86.86,0,0,0,0,.16,1.48,1.48,0,0,0,0,.21v.12l0,.25s0,.06,0,.09a2.61,2.61,0,0,0,.06.27.13.13,0,0,1,0,.06c0,.1.07.2.11.3v0a3.61,3.61,0,0,0,.31.58h0l.16.21,0,.06.15.17.07.09,0,0,9.32,9.31,3.43,18.95L217.5,199.48l-18.94-3.43-9.32-9.31,0,0-.09-.09-.16-.14-.08-.06-.19-.13-.06,0-.23-.13,0,0-.26-.12-.08,0-.24-.08-.11,0-.22-.05-.12,0-.21,0h-.52l-.19,0-.18,0-.16,0-.18,0-.16,0-.17.06-.16.07-.16.07-.16.1-.14.08-.11.08a2.61,2.61,0,0,0-.44.37,2.73,2.73,0,0,0-.23.25v0a1.44,1.44,0,0,0-.18.25l0,.05-.13.23,0,.06a2.4,2.4,0,0,0-.11.23l0,.07-.09.25s0,0,0,0a2.68,2.68,0,0,0-.07.27s0,0,0,.05a2.7,2.7,0,0,0,0,.28v.09a42.29,42.29,0,0,0,72.06,33.27Zm-64.9-24.41,4.67,4.67,24.59,4.45,20.36-20.36-4.45-24.59-4.67-4.67a35.44,35.44,0,1,1-40.5,40.5Z" transform="translate(-112.96 -65.41)"/><path class="cls-4" d="M481.46,260.94c-14.88-17.32-91.7-30.52-184.25-30.52S127.84,243.62,113,260.94Z" transform="translate(-112.96 -65.41)"/><path class="cls-4" d="M130.81,305.4V292.06l-4.38,8.68h-3l-4.4-8.68V305.4h-4.47V282.51h4.4l6,12.38,6-12.38h4.41V305.4Z" transform="translate(-112.96 -65.41)"/><path class="cls-4" d="M154.48,303.09a8.25,8.25,0,0,1-6.18,2.5,8.41,8.41,0,0,1-6.2-2.5c-2.42-2.48-2.25-6.27-2.25-8.81V293c0-4.56.48-6.4,2.25-8.2a8.89,8.89,0,0,1,12.38,0c1.6,1.64,2.28,3.83,2.28,7.53V294C156.76,297.23,156.92,300.55,154.48,303.09Zm-3.32-15.57a3.69,3.69,0,0,0-2.86-1.22,3.75,3.75,0,0,0-2.89,1.22c-1,1.13-1.1,3.28-1.1,6.11s-.12,5.53,1.1,6.76a4,4,0,0,0,2.89,1.22,3.69,3.69,0,0,0,2.86-1.22c.94-1.07,1.13-2.19,1.13-6.85C152.29,289.77,152.06,288.52,151.16,287.52Z" transform="translate(-112.96 -65.41)"/><path class="cls-4" d="M176.5,294.89a5.42,5.42,0,0,1,1.42,3.95c0,4-2.7,6.56-7,6.56h-9.58V282.51h9.19c4.31,0,7.08,2.44,7.08,6.3a5.19,5.19,0,0,1-2.83,4.85A6.13,6.13,0,0,1,176.5,294.89Zm-6.33-3.12c1.83,0,3-1,3-2.64s-1.13-2.63-3-2.63H165.8v5.27Zm.29,9.64a2.82,2.82,0,1,0,0-5.62H165.8v5.62Z" transform="translate(-112.96 -65.41)"/><path class="cls-4" d="M182.49,305.4V282.51H187V305.4Z" transform="translate(-112.96 -65.41)"/><path class="cls-4" d="M192.3,305.4V282.51h4.46v18.9h10.39v4Z" transform="translate(-112.96 -65.41)"/><path class="cls-4" d="M210.79,305.4V282.51h15.08v4H215.26v5.36h9v4h-9v5.56h10.61v4Z" transform="translate(-112.96 -65.41)"/><path class="cls-4" d="M252.88,294.89a5.41,5.41,0,0,1,1.41,3.95c0,4-2.7,6.56-7,6.56H237.7V282.51h9.2c4.31,0,7.07,2.44,7.07,6.3a5.17,5.17,0,0,1-2.83,4.85A6.2,6.2,0,0,1,252.88,294.89Zm-6.33-3.12c1.83,0,2.95-1,2.95-2.64s-1.12-2.63-2.95-2.63h-4.38v5.27Zm.28,9.64a2.82,2.82,0,1,0,0-5.62h-4.66v5.62Z" transform="translate(-112.96 -65.41)"/><path class="cls-4" d="M258.86,305.4V282.51h4.47V305.4Z" transform="translate(-112.96 -65.41)"/><path class="cls-4" d="M279.73,305a9,9,0,0,1-3.34.61,8.5,8.5,0,0,1-6.24-2.5c-2.25-2.29-2.25-5.31-2.25-9.14V293c0-4.56.48-6.4,2.25-8.2a8.44,8.44,0,0,1,6.21-2.51,8.58,8.58,0,0,1,3.37.62,8.12,8.12,0,0,1,3,2l-3,3a4.3,4.3,0,0,0-3.37-1.61,3.62,3.62,0,0,0-2.86,1.19c-1.13,1.26-1.13,3.64-1.13,5.82v1.22c0,3.64.22,4.89,1.13,5.89a3.57,3.57,0,0,0,2.86,1.19,4.25,4.25,0,0,0,3.37-1.61l3,3A8.12,8.12,0,0,1,279.73,305Z" transform="translate(-112.96 -65.41)"/><path class="cls-4" d="M295.14,296v9.39H290.7V296l-6.88-13.5h4.85l4.28,9.23,4.21-9.23H302Z" transform="translate(-112.96 -65.41)"/><path class="cls-4" d="M315.53,305a9.09,9.09,0,0,1-3.35.61,8.52,8.52,0,0,1-6.24-2.5c-2.25-2.29-2.25-5.31-2.25-9.14V293c0-4.56.49-6.4,2.25-8.2a8.44,8.44,0,0,1,6.21-2.51,8.66,8.66,0,0,1,3.38.62,8.18,8.18,0,0,1,3,2l-3,3a4.32,4.32,0,0,0-3.38-1.61,3.64,3.64,0,0,0-2.86,1.19c-1.13,1.26-1.13,3.64-1.13,5.82v1.22c0,3.64.23,4.89,1.13,5.89a3.59,3.59,0,0,0,2.86,1.19,4.28,4.28,0,0,0,3.38-1.61l3,3A8.18,8.18,0,0,1,315.53,305Z" transform="translate(-112.96 -65.41)"/><path class="cls-4" d="M322.54,305.4V282.51H327v18.9h10.38v4Z" transform="translate(-112.96 -65.41)"/><path class="cls-4" d="M341,305.4V282.51h15.08v4H345.5v5.36h9v4h-9v5.56h10.61v4Z" transform="translate(-112.96 -65.41)"/><path class="cls-4" d="M376.21,282.51a8.25,8.25,0,0,1,6,2.18c1.68,1.68,2.32,3.64,2.32,7.14v2a43.17,43.17,0,0,1-.26,5.37,7.51,7.51,0,0,1-2.06,4,8.28,8.28,0,0,1-6,2.19H368V282.51Zm-.42,18.9a4,4,0,0,0,3.35-1.41c.77-1,1-2.22,1-6.5,0-3.4-.22-4.63-1-5.59a4,4,0,0,0-3.35-1.41h-3.37v14.91Z" transform="translate(-112.96 -65.41)"/><path class="cls-4" d="M403,303.09a8.25,8.25,0,0,1-6.18,2.5,8.43,8.43,0,0,1-6.2-2.5c-2.41-2.48-2.25-6.27-2.25-8.81V293c0-4.56.48-6.4,2.25-8.2a8.89,8.89,0,0,1,12.38,0c1.6,1.64,2.28,3.83,2.28,7.53V294C405.28,297.23,405.44,300.55,403,303.09Zm-3.32-15.57a3.69,3.69,0,0,0-2.86-1.22,3.78,3.78,0,0,0-2.89,1.22c-1,1.13-1.09,3.28-1.09,6.11s-.13,5.53,1.09,6.76a4,4,0,0,0,2.89,1.22,3.69,3.69,0,0,0,2.86-1.22c.94-1.07,1.13-2.19,1.13-6.85C400.81,289.77,400.58,288.52,399.68,287.52Z" transform="translate(-112.96 -65.41)"/><path class="cls-4" d="M420.91,305a9,9,0,0,1-3.34.61,8.5,8.5,0,0,1-6.24-2.5c-2.25-2.29-2.25-5.31-2.25-9.14V293c0-4.56.48-6.4,2.25-8.2a8.43,8.43,0,0,1,6.2-2.51,8.63,8.63,0,0,1,3.38.62,8.29,8.29,0,0,1,3,2l-3,3a4.31,4.31,0,0,0-3.38-1.61,3.64,3.64,0,0,0-2.86,1.19c-1.12,1.26-1.12,3.64-1.12,5.82v1.22c0,3.64.22,4.89,1.12,5.89a3.59,3.59,0,0,0,2.86,1.19,4.27,4.27,0,0,0,3.38-1.61l3,3A8.29,8.29,0,0,1,420.91,305Z" transform="translate(-112.96 -65.41)"/><path class="cls-4" d="M436,286.5v18.9h-4.46V286.5h-6v-4H442v4Z" transform="translate(-112.96 -65.41)"/><path class="cls-4" d="M458.86,303.09a8.25,8.25,0,0,1-6.18,2.5,8.43,8.43,0,0,1-6.2-2.5c-2.41-2.48-2.25-6.27-2.25-8.81V293c0-4.56.48-6.4,2.25-8.2a8.89,8.89,0,0,1,12.38,0c1.6,1.64,2.28,3.83,2.28,7.53V294C461.14,297.23,461.3,300.55,458.86,303.09Zm-3.32-15.57a3.69,3.69,0,0,0-2.86-1.22,3.78,3.78,0,0,0-2.89,1.22c-1,1.13-1.09,3.28-1.09,6.11s-.13,5.53,1.09,6.76a4,4,0,0,0,2.89,1.22,3.69,3.69,0,0,0,2.86-1.22c.94-1.07,1.13-2.19,1.13-6.85C456.67,289.77,456.45,288.52,455.54,287.52Z" transform="translate(-112.96 -65.41)"/><path class="cls-4" d="M477.86,305.4l-4.47-9.13h-3.21v9.13h-4.47V282.51h9c4.37,0,7.43,2.89,7.43,7a6.16,6.16,0,0,1-1.93,4.63,6,6,0,0,1-2.25,1.38L483,305.4Zm-3.47-12.86a3,3,0,1,0,0-6h-4.21v6Z" transform="translate(-112.96 -65.41)"/></svg>