<?xml version="1.0" encoding="UTF-8"?>
<svg xmlns="http://www.w3.org/2000/svg" xmlns:xlink="http://www.w3.org/1999/xlink" width="108px" height="70px" viewBox="0 0 107 70" version="1.1">
<g id="surface1">
<path style=" stroke:none;fill-rule:nonzero;fill:rgb(87.843137%,25.882353%,39.215686%);fill-opacity:1;" d="M 52.28125 33.800781 C 52.28125 33.800781 54.691406 26.988281 52.316406 24.304688 C 50.339844 22.066406 43.78125 25.265625 43.390625 21.972656 C 42.96875 18.382812 46.945312 13.628906 48.84375 11.59375 C 49.074219 11.339844 49.40625 11.203125 49.746094 11.214844 C 50.085938 11.226562 50.40625 11.386719 50.621094 11.65625 C 52.5 13.984375 57.347656 19.355469 62.121094 19.589844 C 64.441406 21.9375 52.28125 33.800781 52.28125 33.800781 Z M 52.28125 33.800781 "/>
<path style=" stroke:none;fill-rule:nonzero;fill:rgb(52.156863%,87.058824%,46.27451%);fill-opacity:1;" d="M 40.992188 36.964844 C 40.992188 41.628906 37.246094 45.40625 32.625 45.40625 C 28.003906 45.40625 24.257812 41.628906 24.257812 36.964844 C 24.257812 32.304688 28.003906 28.527344 32.625 28.527344 C 37.246094 28.527344 40.992188 32.304688 40.992188 36.964844 Z M 40.992188 36.964844 "/>
<path style=" stroke:none;fill-rule:nonzero;fill:rgb(100%,71.372549%,2.745098%);fill-opacity:1;" d="M 79.5625 36.964844 C 79.5625 41.628906 75.816406 45.40625 71.195312 45.40625 C 66.574219 45.40625 62.828125 41.628906 62.828125 36.964844 C 62.828125 32.304688 66.574219 28.527344 71.195312 28.527344 C 75.816406 28.527344 79.5625 32.304688 79.5625 36.964844 Z M 79.5625 36.964844 "/>
<path style=" stroke:none;fill-rule:nonzero;fill:rgb(31.372549%,32.941176%,36.470588%);fill-opacity:1;" d="M 58.296875 9.515625 C 55.691406 9.515625 53.578125 7.382812 53.578125 4.757812 C 53.578125 2.128906 55.691406 -0.00390625 58.296875 -0.00390625 C 60.902344 -0.00390625 63.015625 2.128906 63.015625 4.757812 C 63.015625 7.382812 60.902344 9.515625 58.296875 9.515625 Z M 58.296875 2 C 56.785156 2 55.558594 3.234375 55.558594 4.761719 C 55.5625 6.285156 56.785156 7.519531 58.296875 7.519531 C 59.808594 7.519531 61.035156 6.28125 61.03125 4.757812 C 61.03125 3.234375 59.808594 2 58.296875 2 Z M 58.296875 2 "/>
<path style=" stroke:none;fill-rule:nonzero;fill:rgb(31.372549%,32.941176%,36.470588%);fill-opacity:1;" d="M 58.65625 22.140625 C 57.921875 20.96875 56.644531 20.257812 55.269531 20.261719 L 45.777344 20.261719 C 45.230469 20.261719 44.789062 20.710938 44.789062 21.261719 C 44.789062 21.816406 45.230469 22.261719 45.777344 22.261719 L 55.269531 22.261719 C 55.949219 22.257812 56.589844 22.597656 56.96875 23.171875 C 57.347656 23.742188 57.414062 24.472656 57.148438 25.105469 L 51.90625 32.339844 C 51.179688 31.984375 50.382812 31.800781 49.578125 31.800781 C 47.007812 31.792969 44.78125 33.609375 44.253906 36.148438 C 43.726562 38.6875 45.039062 41.25 47.398438 42.285156 C 49.761719 43.316406 52.515625 42.535156 53.996094 40.414062 C 55.472656 38.289062 55.269531 35.410156 53.503906 33.519531 L 58.808594 26.199219 L 58.867188 26.121094 L 58.90625 26.035156 C 59.492188 24.78125 59.398438 23.308594 58.65625 22.140625 Z M 52.996094 37.246094 C 52.996094 39.148438 51.464844 40.691406 49.578125 40.691406 C 47.691406 40.691406 46.164062 39.148438 46.164062 37.246094 C 46.164062 35.34375 47.691406 33.800781 49.578125 33.800781 C 49.960938 33.800781 50.34375 33.867188 50.707031 33.996094 L 48.777344 36.65625 C 48.621094 36.871094 48.558594 37.136719 48.597656 37.398438 C 48.640625 37.664062 48.78125 37.898438 48.996094 38.054688 C 49.207031 38.210938 49.472656 38.273438 49.730469 38.234375 C 49.992188 38.191406 50.226562 38.050781 50.378906 37.835938 L 52.304688 35.175781 C 52.753906 35.769531 52.996094 36.5 52.996094 37.246094 Z M 52.996094 37.246094 "/>
<path style=" stroke:none;fill-rule:nonzero;fill:rgb(23.921569%,30.196078%,33.333333%);fill-opacity:1;" d="M 39.964844 22.261719 C 39.648438 22.261719 39.351562 22.105469 39.164062 21.847656 C 38.980469 21.585938 38.925781 21.253906 39.027344 20.949219 C 41.878906 12.285156 45.824219 7.066406 49.859375 6.632812 C 51.71875 6.433594 53.355469 7.300781 54.351562 9.011719 C 56.550781 12.773438 59.300781 14.902344 62.53125 15.339844 C 63.914062 15.53125 65.324219 15.386719 66.640625 14.914062 C 66.964844 14.761719 67.351562 14.796875 67.644531 15.011719 C 67.933594 15.226562 68.089844 15.582031 68.042969 15.945312 C 68 16.304688 67.761719 16.613281 67.429688 16.75 C 65.785156 17.375 64.011719 17.578125 62.269531 17.332031 C 59.613281 16.972656 55.789062 15.417969 52.644531 10.046875 C 52.050781 9.027344 51.136719 8.523438 50.070312 8.640625 C 48.75 8.78125 47.242188 9.835938 45.820312 11.609375 C 43.988281 13.898438 42.335938 17.257812 40.90625 21.59375 C 40.765625 21.996094 40.386719 22.265625 39.964844 22.261719 Z M 39.964844 22.261719 "/>
<path style=" stroke:none;fill-rule:nonzero;fill:rgb(31.372549%,32.941176%,36.470588%);fill-opacity:1;" d="M 71.195312 26.921875 C 70.648438 26.917969 70.207031 26.472656 70.203125 25.921875 L 70.203125 19.507812 C 70.203125 18.957031 70.648438 18.507812 71.195312 18.507812 C 71.742188 18.507812 72.1875 18.957031 72.1875 19.507812 L 72.1875 25.921875 C 72.183594 26.472656 71.742188 26.917969 71.195312 26.921875 Z M 71.195312 26.921875 "/>
<path style=" stroke:none;fill-rule:nonzero;fill:rgb(31.372549%,32.941176%,36.470588%);fill-opacity:1;" d="M 83.417969 37.246094 C 83.417969 30.4375 77.945312 24.921875 71.195312 24.921875 C 64.445312 24.921875 58.976562 30.4375 58.976562 37.246094 C 58.976562 37.570312 59.132812 37.878906 59.402344 38.0625 C 59.625 41.539062 61.359375 44.738281 64.140625 46.808594 C 64.121094 47.007812 64.207031 47.207031 64.367188 47.328125 L 65.1875 47.957031 C 65.445312 48.160156 65.816406 48.109375 66.019531 47.847656 L 66.421875 47.316406 C 66.617188 47.050781 66.566406 46.675781 66.308594 46.476562 L 65.492188 45.847656 C 65.296875 45.6875 65.023438 45.675781 64.8125 45.816406 C 62.34375 43.964844 60.796875 41.113281 60.589844 38.015625 C 60.820312 37.824219 60.957031 37.539062 60.957031 37.238281 C 60.957031 31.535156 65.542969 26.910156 71.195312 26.910156 C 76.851562 26.910156 81.433594 31.535156 81.433594 37.238281 C 81.433594 37.539062 81.570312 37.824219 81.804688 38.015625 C 81.59375 41.113281 80.050781 43.960938 77.582031 45.816406 C 77.375 45.6875 77.113281 45.699219 76.917969 45.84375 L 76.089844 46.460938 C 75.824219 46.65625 75.769531 47.03125 75.964844 47.296875 L 76.359375 47.835938 C 76.453125 47.964844 76.59375 48.050781 76.75 48.078125 C 76.90625 48.101562 77.066406 48.0625 77.195312 47.96875 L 78.019531 47.347656 C 78.191406 47.226562 78.28125 47.023438 78.257812 46.8125 C 81.039062 44.746094 82.773438 41.546875 83 38.070312 C 83.265625 37.878906 83.417969 37.574219 83.417969 37.246094 Z M 83.417969 37.246094 "/>
<path style=" stroke:none;fill-rule:nonzero;fill:rgb(31.372549%,32.941176%,36.470588%);fill-opacity:1;" d="M 41.207031 45.683594 C 44.828125 42.03125 45.804688 36.492188 43.660156 31.800781 C 41.515625 27.113281 36.699219 24.269531 31.597656 24.679688 L 31.484375 24.679688 C 31.324219 24.710938 31.179688 24.78125 31.054688 24.882812 L 30.992188 24.9375 L 30.945312 24.992188 C 30.9375 25 30.929688 25.011719 30.921875 25.023438 L 30.867188 25.105469 L 30.839844 25.152344 L 30.816406 25.195312 L 30.796875 25.238281 C 30.789062 25.253906 30.785156 25.265625 30.78125 25.28125 C 30.773438 25.296875 30.765625 25.3125 30.765625 25.332031 C 30.761719 25.34375 30.761719 25.359375 30.765625 25.371094 C 30.761719 25.390625 30.761719 25.40625 30.765625 25.425781 C 30.761719 25.4375 30.761719 25.453125 30.765625 25.46875 L 30.765625 25.519531 C 30.761719 25.539062 30.761719 25.554688 30.765625 25.570312 C 30.761719 25.585938 30.761719 25.601562 30.765625 25.617188 C 30.761719 25.636719 30.761719 25.65625 30.765625 25.679688 L 30.765625 25.785156 C 30.765625 25.785156 30.765625 25.804688 30.765625 25.8125 C 30.769531 25.839844 30.773438 25.867188 30.78125 25.890625 C 30.785156 25.898438 30.785156 25.902344 30.78125 25.910156 C 30.78125 25.9375 30.800781 25.96875 30.8125 25.996094 C 30.839844 26.054688 30.867188 26.113281 30.902344 26.164062 L 30.949219 26.226562 L 30.949219 26.242188 L 30.992188 26.292969 L 31.011719 26.320312 L 33.707031 29.03125 L 34.699219 34.554688 L 30.238281 39.074219 L 24.765625 38.074219 L 22.074219 35.359375 L 22.046875 35.332031 L 22 35.292969 L 21.976562 35.277344 L 21.921875 35.238281 L 21.90625 35.238281 L 21.839844 35.199219 L 21.761719 35.164062 L 21.742188 35.164062 L 21.671875 35.140625 L 21.640625 35.140625 L 21.574219 35.125 L 21.078125 35.125 L 20.9375 35.183594 L 20.890625 35.214844 L 20.851562 35.238281 L 20.820312 35.261719 C 20.773438 35.292969 20.730469 35.328125 20.691406 35.367188 C 20.667969 35.390625 20.644531 35.414062 20.625 35.441406 C 20.605469 35.464844 20.585938 35.488281 20.574219 35.515625 L 20.574219 35.527344 L 20.535156 35.597656 L 20.535156 35.613281 C 20.523438 35.636719 20.511719 35.65625 20.503906 35.679688 L 20.503906 35.699219 L 20.476562 35.773438 C 20.46875 35.800781 20.460938 35.824219 20.457031 35.851562 C 20.457031 35.851562 20.457031 35.851562 20.457031 35.867188 C 20.457031 35.894531 20.457031 35.921875 20.457031 35.949219 L 20.457031 35.976562 C 20.050781 41.121094 22.867188 45.980469 27.515625 48.144531 C 32.164062 50.3125 37.660156 49.324219 41.28125 45.671875 Z M 22.453125 38.570312 L 23.804688 39.929688 L 30.910156 41.226562 L 36.792969 35.292969 L 35.507812 28.125 L 34.15625 26.765625 C 39.339844 27.585938 43.070312 32.222656 42.796875 37.503906 C 42.527344 42.789062 38.339844 47.011719 33.101562 47.285156 C 27.863281 47.558594 23.265625 43.796875 22.453125 38.570312 Z M 22.453125 38.570312 "/>
<path style=" stroke:none;fill-rule:nonzero;fill:rgb(31.372549%,32.941176%,36.470588%);fill-opacity:1;" d="M 106.511719 56.984375 C 102.214844 51.9375 80.015625 48.089844 53.273438 48.089844 C 26.527344 48.089844 4.332031 51.9375 0.0429688 56.984375 Z M 106.511719 56.984375 "/>
<path style=" stroke:none;fill-rule:nonzero;fill:rgb(31.372549%,32.941176%,36.470588%);fill-opacity:1;" d="M 5.1875 69.941406 L 5.1875 66.054688 L 3.921875 68.582031 L 3.054688 68.582031 L 1.785156 66.054688 L 1.785156 69.941406 L 0.492188 69.941406 L 0.492188 63.269531 L 1.765625 63.269531 L 3.5 66.878906 L 5.230469 63.269531 L 6.507812 63.269531 L 6.507812 69.941406 Z M 5.1875 69.941406 "/>
<path style=" stroke:none;fill-rule:nonzero;fill:rgb(31.372549%,32.941176%,36.470588%);fill-opacity:1;" d="M 12.027344 69.269531 C 11.5625 69.753906 10.914062 70.019531 10.242188 69.996094 C 9.570312 70.015625 8.921875 69.75 8.449219 69.269531 C 7.75 68.546875 7.800781 67.441406 7.800781 66.699219 L 7.800781 66.328125 C 7.800781 65 7.941406 64.460938 8.449219 63.9375 C 9.449219 62.964844 11.03125 62.964844 12.027344 63.9375 C 12.492188 64.417969 12.6875 65.054688 12.6875 66.132812 L 12.6875 66.621094 C 12.6875 67.5625 12.734375 68.527344 12.027344 69.269531 Z M 11.070312 64.730469 C 10.859375 64.496094 10.554688 64.367188 10.242188 64.375 C 9.925781 64.363281 9.621094 64.496094 9.40625 64.730469 C 9.117188 65.058594 9.089844 65.6875 9.089844 66.511719 C 9.089844 67.335938 9.054688 68.125 9.40625 68.480469 C 9.625 68.710938 9.929688 68.839844 10.242188 68.835938 C 10.554688 68.847656 10.859375 68.71875 11.070312 68.480469 C 11.339844 68.167969 11.394531 67.84375 11.394531 66.484375 C 11.394531 65.386719 11.328125 65.023438 11.070312 64.730469 Z M 11.070312 64.730469 "/>
<path style=" stroke:none;fill-rule:nonzero;fill:rgb(31.372549%,32.941176%,36.470588%);fill-opacity:1;" d="M 18.390625 66.878906 C 18.675781 67.191406 18.824219 67.605469 18.800781 68.03125 C 18.800781 69.195312 18.019531 69.941406 16.777344 69.941406 L 14.011719 69.941406 L 14.011719 63.269531 L 16.667969 63.269531 C 17.910156 63.269531 18.710938 63.980469 18.710938 65.105469 C 18.738281 65.699219 18.417969 66.25 17.894531 66.519531 C 18.078125 66.609375 18.246094 66.730469 18.390625 66.878906 Z M 16.5625 65.96875 C 17.089844 65.96875 17.429688 65.679688 17.429688 65.199219 C 17.429688 64.722656 17.101562 64.433594 16.5625 64.433594 L 15.300781 64.433594 L 15.300781 65.96875 Z M 16.644531 68.777344 C 16.953125 68.804688 17.246094 68.65625 17.410156 68.390625 C 17.570312 68.125 17.570312 67.792969 17.410156 67.527344 C 17.246094 67.265625 16.953125 67.113281 16.644531 67.140625 L 15.300781 67.140625 L 15.300781 68.777344 Z M 16.644531 68.777344 "/>
<path style=" stroke:none;fill-rule:nonzero;fill:rgb(31.372549%,32.941176%,36.470588%);fill-opacity:1;" d="M 20.121094 69.941406 L 20.121094 63.269531 L 21.425781 63.269531 L 21.425781 69.941406 Z M 20.121094 69.941406 "/>
<path style=" stroke:none;fill-rule:nonzero;fill:rgb(31.372549%,32.941176%,36.470588%);fill-opacity:1;" d="M 22.957031 69.941406 L 22.957031 63.269531 L 24.246094 63.269531 L 24.246094 68.777344 L 27.246094 68.777344 L 27.246094 69.945312 Z M 22.957031 69.941406 "/>
<path style=" stroke:none;fill-rule:nonzero;fill:rgb(31.372549%,32.941176%,36.470588%);fill-opacity:1;" d="M 28.300781 69.941406 L 28.300781 63.269531 L 32.65625 63.269531 L 32.65625 64.4375 L 29.589844 64.4375 L 29.589844 66 L 32.191406 66 L 32.191406 67.164062 L 29.589844 67.164062 L 29.589844 68.785156 L 32.65625 68.785156 L 32.65625 69.949219 Z M 28.300781 69.941406 "/>
<path style=" stroke:none;fill-rule:nonzero;fill:rgb(31.372549%,32.941176%,36.470588%);fill-opacity:1;" d="M 40.460938 66.878906 C 40.746094 67.191406 40.894531 67.605469 40.871094 68.03125 C 40.871094 69.195312 40.089844 69.941406 38.847656 69.941406 L 36.074219 69.941406 L 36.074219 63.269531 L 38.734375 63.269531 C 39.980469 63.269531 40.777344 63.980469 40.777344 65.105469 C 40.804688 65.699219 40.484375 66.253906 39.960938 66.519531 C 40.144531 66.609375 40.316406 66.730469 40.460938 66.878906 Z M 38.632812 65.96875 C 39.160156 65.96875 39.484375 65.679688 39.484375 65.199219 C 39.484375 64.722656 39.160156 64.433594 38.632812 64.433594 L 37.367188 64.433594 L 37.367188 65.96875 Z M 38.714844 68.777344 C 39.019531 68.804688 39.316406 68.65625 39.476562 68.390625 C 39.636719 68.125 39.636719 67.792969 39.476562 67.527344 C 39.316406 67.265625 39.019531 67.113281 38.714844 67.140625 L 37.367188 67.140625 L 37.367188 68.777344 Z M 38.714844 68.777344 "/>
<path style=" stroke:none;fill-rule:nonzero;fill:rgb(31.372549%,32.941176%,36.470588%);fill-opacity:1;" d="M 42.191406 69.941406 L 42.191406 63.269531 L 43.480469 63.269531 L 43.480469 69.941406 Z M 42.191406 69.941406 "/>
<path style=" stroke:none;fill-rule:nonzero;fill:rgb(31.372549%,32.941176%,36.470588%);fill-opacity:1;" d="M 48.21875 69.824219 C 47.914062 69.945312 47.585938 70.007812 47.253906 70.003906 C 46.582031 70.019531 45.929688 69.757812 45.453125 69.273438 C 44.800781 68.605469 44.800781 67.726562 44.800781 66.609375 L 44.800781 66.328125 C 44.800781 65 44.941406 64.460938 45.453125 63.9375 C 45.925781 63.457031 46.574219 63.191406 47.246094 63.207031 C 47.582031 63.199219 47.910156 63.261719 48.21875 63.386719 C 48.550781 63.511719 48.84375 63.710938 49.085938 63.96875 L 48.21875 64.84375 C 47.984375 64.546875 47.625 64.375 47.246094 64.375 C 46.933594 64.359375 46.628906 64.488281 46.421875 64.722656 C 46.09375 65.089844 46.09375 65.78125 46.09375 66.417969 L 46.09375 66.773438 C 46.09375 67.835938 46.15625 68.199219 46.421875 68.492188 C 46.628906 68.726562 46.933594 68.855469 47.246094 68.835938 C 47.625 68.839844 47.984375 68.667969 48.21875 68.367188 L 49.085938 69.242188 C 48.84375 69.5 48.550781 69.699219 48.21875 69.824219 Z M 48.21875 69.824219 "/>
<path style=" stroke:none;fill-rule:nonzero;fill:rgb(31.372549%,32.941176%,36.470588%);fill-opacity:1;" d="M 52.671875 67.203125 L 52.671875 69.9375 L 51.390625 69.9375 L 51.390625 67.203125 L 49.402344 63.269531 L 50.804688 63.269531 L 52.039062 65.957031 L 53.257812 63.269531 L 54.65625 63.269531 Z M 52.671875 67.203125 "/>
<path style=" stroke:none;fill-rule:nonzero;fill:rgb(31.372549%,32.941176%,36.470588%);fill-opacity:1;" d="M 58.566406 69.824219 C 58.257812 69.945312 57.929688 70.003906 57.597656 70.003906 C 56.921875 70.019531 56.269531 69.757812 55.792969 69.273438 C 55.144531 68.605469 55.144531 67.726562 55.144531 66.609375 L 55.144531 66.328125 C 55.144531 65 55.285156 64.460938 55.792969 63.9375 C 56.265625 63.457031 56.917969 63.191406 57.589844 63.207031 C 57.921875 63.199219 58.253906 63.261719 58.566406 63.386719 C 58.894531 63.515625 59.191406 63.714844 59.433594 63.96875 L 58.566406 64.84375 C 58.328125 64.546875 57.96875 64.375 57.589844 64.375 C 57.277344 64.359375 56.972656 64.488281 56.761719 64.722656 C 56.4375 65.089844 56.4375 65.78125 56.4375 66.417969 L 56.4375 66.773438 C 56.4375 67.835938 56.503906 68.199219 56.761719 68.492188 C 56.972656 68.726562 57.277344 68.855469 57.589844 68.835938 C 57.96875 68.839844 58.328125 68.667969 58.566406 68.367188 L 59.433594 69.242188 C 59.191406 69.5 58.894531 69.699219 58.566406 69.824219 Z M 58.566406 69.824219 "/>
<path style=" stroke:none;fill-rule:nonzero;fill:rgb(31.372549%,32.941176%,36.470588%);fill-opacity:1;" d="M 60.589844 69.941406 L 60.589844 63.269531 L 61.878906 63.269531 L 61.878906 68.777344 L 64.878906 68.777344 L 64.878906 69.945312 Z M 60.589844 69.941406 "/>
<path style=" stroke:none;fill-rule:nonzero;fill:rgb(31.372549%,32.941176%,36.470588%);fill-opacity:1;" d="M 65.925781 69.941406 L 65.925781 63.269531 L 70.28125 63.269531 L 70.28125 64.4375 L 67.226562 64.4375 L 67.226562 66 L 69.828125 66 L 69.828125 67.164062 L 67.226562 67.164062 L 67.226562 68.785156 L 70.292969 68.785156 L 70.292969 69.949219 Z M 65.925781 69.941406 "/>
<path style=" stroke:none;fill-rule:nonzero;fill:rgb(31.372549%,32.941176%,36.470588%);fill-opacity:1;" d="M 76.097656 63.269531 C 76.738281 63.238281 77.363281 63.46875 77.832031 63.90625 C 78.320312 64.394531 78.503906 64.96875 78.503906 65.988281 L 78.503906 66.570312 C 78.511719 67.09375 78.484375 67.613281 78.429688 68.136719 C 78.351562 68.574219 78.144531 68.984375 77.832031 69.300781 C 77.363281 69.738281 76.738281 69.96875 76.097656 69.9375 L 73.726562 69.9375 L 73.726562 63.269531 Z M 75.976562 68.777344 C 76.347656 68.804688 76.707031 68.652344 76.945312 68.367188 C 77.167969 68.078125 77.234375 67.722656 77.234375 66.472656 C 77.234375 65.484375 77.171875 65.125 76.945312 64.84375 C 76.707031 64.558594 76.347656 64.40625 75.976562 64.433594 L 75.003906 64.433594 L 75.003906 68.777344 Z M 75.976562 68.777344 "/>
<path style=" stroke:none;fill-rule:nonzero;fill:rgb(31.372549%,32.941176%,36.470588%);fill-opacity:1;" d="M 83.839844 69.269531 C 83.375 69.753906 82.726562 70.019531 82.054688 69.996094 C 81.382812 70.011719 80.734375 69.75 80.261719 69.269531 C 79.566406 68.546875 79.613281 67.441406 79.613281 66.699219 L 79.613281 66.328125 C 79.613281 65 79.753906 64.460938 80.261719 63.9375 C 81.261719 62.964844 82.84375 62.964844 83.839844 63.9375 C 84.304688 64.417969 84.5 65.054688 84.5 66.132812 L 84.5 66.621094 C 84.5 67.5625 84.546875 68.527344 83.839844 69.269531 Z M 82.882812 64.730469 C 82.671875 64.496094 82.367188 64.367188 82.054688 64.375 C 81.738281 64.367188 81.433594 64.496094 81.21875 64.730469 C 80.929688 65.058594 80.90625 65.6875 80.90625 66.511719 C 80.90625 67.335938 80.867188 68.125 81.21875 68.480469 C 81.4375 68.710938 81.742188 68.839844 82.054688 68.835938 C 82.367188 68.847656 82.671875 68.71875 82.882812 68.480469 C 83.152344 68.167969 83.207031 67.84375 83.207031 66.484375 C 83.207031 65.386719 83.140625 65.023438 82.882812 64.730469 Z M 82.882812 64.730469 "/>
<path style=" stroke:none;fill-rule:nonzero;fill:rgb(31.372549%,32.941176%,36.470588%);fill-opacity:1;" d="M 89.015625 69.824219 C 88.707031 69.945312 88.382812 70.007812 88.050781 70.003906 C 87.375 70.019531 86.722656 69.757812 86.246094 69.273438 C 85.597656 68.605469 85.597656 67.726562 85.597656 66.609375 L 85.597656 66.328125 C 85.597656 65 85.738281 64.460938 86.246094 63.9375 C 86.71875 63.457031 87.367188 63.191406 88.039062 63.207031 C 88.375 63.199219 88.707031 63.261719 89.015625 63.386719 C 89.34375 63.515625 89.640625 63.714844 89.882812 63.96875 L 89.015625 64.84375 C 88.777344 64.546875 88.417969 64.375 88.039062 64.375 C 87.726562 64.359375 87.421875 64.488281 87.214844 64.722656 C 86.890625 65.089844 86.890625 65.78125 86.890625 66.417969 L 86.890625 66.773438 C 86.890625 67.835938 86.953125 68.199219 87.214844 68.492188 C 87.421875 68.726562 87.726562 68.855469 88.039062 68.835938 C 88.417969 68.839844 88.78125 68.667969 89.015625 68.367188 L 89.882812 69.242188 C 89.640625 69.5 89.34375 69.699219 89.015625 69.824219 Z M 89.015625 69.824219 "/>
<path style=" stroke:none;fill-rule:nonzero;fill:rgb(31.372549%,32.941176%,36.470588%);fill-opacity:1;" d="M 93.375 64.433594 L 93.375 69.941406 L 92.085938 69.941406 L 92.085938 64.433594 L 90.355469 64.433594 L 90.355469 63.269531 L 95.109375 63.269531 L 95.109375 64.433594 Z M 93.375 64.433594 "/>
<path style=" stroke:none;fill-rule:nonzero;fill:rgb(31.372549%,32.941176%,36.470588%);fill-opacity:1;" d="M 99.980469 69.269531 C 99.515625 69.753906 98.867188 70.019531 98.195312 69.996094 C 97.523438 70.011719 96.875 69.75 96.40625 69.269531 C 95.707031 68.546875 95.753906 67.441406 95.753906 66.699219 L 95.753906 66.328125 C 95.753906 65 95.894531 64.460938 96.40625 63.9375 C 97.402344 62.964844 98.984375 62.964844 99.980469 63.9375 C 100.445312 64.417969 100.640625 65.054688 100.640625 66.132812 L 100.640625 66.621094 C 100.640625 67.5625 100.6875 68.527344 99.980469 69.269531 Z M 99.023438 64.730469 C 98.8125 64.496094 98.511719 64.367188 98.195312 64.375 C 97.878906 64.367188 97.574219 64.496094 97.359375 64.730469 C 97.074219 65.058594 97.046875 65.6875 97.046875 66.511719 C 97.046875 67.335938 97.007812 68.125 97.359375 68.480469 C 97.578125 68.710938 97.882812 68.839844 98.195312 68.835938 C 98.511719 68.847656 98.8125 68.71875 99.023438 68.480469 C 99.292969 68.167969 99.347656 67.84375 99.347656 66.484375 C 99.347656 65.386719 99.285156 65.023438 99.023438 64.730469 Z M 99.023438 64.730469 "/>
<path style=" stroke:none;fill-rule:nonzero;fill:rgb(31.372549%,32.941176%,36.470588%);fill-opacity:1;" d="M 105.472656 69.941406 L 104.179688 67.28125 L 103.253906 67.28125 L 103.253906 69.941406 L 101.960938 69.941406 L 101.960938 63.269531 L 104.5625 63.269531 C 105.824219 63.269531 106.710938 64.113281 106.710938 65.3125 C 106.722656 65.820312 106.519531 66.308594 106.152344 66.660156 C 105.96875 66.839844 105.746094 66.980469 105.5 67.0625 L 106.957031 69.941406 Z M 104.46875 66.195312 C 104.949219 66.195312 105.335938 65.800781 105.335938 65.320312 C 105.335938 64.835938 104.949219 64.445312 104.46875 64.445312 L 103.253906 64.445312 L 103.253906 66.195312 Z M 104.46875 66.195312 "/>
</g>
</svg>
